HIERARCHY
ROOT Hips
{
    OFFSET 0.000000 0.000000 0.000000
    CHANNELS 6 Xposition Yposition Zposition Zrotation Xrotation Yrotation
    JOINT Spine
    {
        OFFSET -0.000000 8.603107 0.000000
        CHANNELS 3 Zrotation Xrotation Yrotation
        JOINT Spine1
        {
            OFFSET -0.000000 23.906662 0.000000
            CHANNELS 3 Zrotation Xrotation Yrotation
            JOINT Neck
            {
                OFFSET -0.000000 23.808481 2.164407
                CHANNELS 3 Zrotation Xrotation Yrotation
                JOINT Head
                {
                    OFFSET -0.000000 14.688231 -2.098319
                    CHANNELS 3 Zrotation Xrotation Yrotation
                    End Site
                    {
                        OFFSET -0.000000 26.228985 0.000000
                    }
                }
            }
            JOINT LeftShoulder
            {
                OFFSET 4.178941 22.658146 -0.129871
                CHANNELS 3 Zrotation Xrotation Yrotation
                JOINT LeftArm
                {
                    OFFSET 9.497952 0.000000 0.000000
                    CHANNELS 3 Zrotation Xrotation Yrotation
                    JOINT LeftForeArm
                    {
                        OFFSET 38.855015 0.000000 0.000000
                        CHANNELS 3 Zrotation Xrotation Yrotation
                        JOINT LeftHand
                        {
                            OFFSET 24.940550 0.000000 0.000000
                            CHANNELS 3 Zrotation Xrotation Yrotation
                            End Site
                            {
                                OFFSET 15.737392 0.000000 0.000000
                            }
                        }
                    }
                }
            }
            JOINT RightShoulder
            {
                OFFSET -4.145384 22.658146 -0.129871
                CHANNELS 3 Zrotation Xrotation Yrotation
                JOINT RightArm
                {
                    OFFSET -9.497952 0.000000 0.000000
                    CHANNELS 3 Zrotation Xrotation Yrotation
                    JOINT RightForeArm
                    {
                        OFFSET -38.855015 0.000000 0.000000
                        CHANNELS 3 Zrotation Xrotation Yrotation
                        JOINT RightHand
                        {
                            OFFSET -24.940550 0.000000 0.000000
                            CHANNELS 3 Zrotation Xrotation Yrotation
                            End Site
                            {
                                OFFSET -15.737392 0.000000 0.000000
                            }
                        }
                    }
                }
            }
        }
    }
    JOINT LeftUpLeg
    {
        OFFSET 10.491594 0.000000 0.000000
        CHANNELS 3 Zrotation Xrotation Yrotation
        JOINT LeftLeg
        {
            OFFSET -0.000000 -46.080647 0.000000
            CHANNELS 3 Zrotation Xrotation Yrotation
            JOINT LeftFoot
            {
                OFFSET -0.000000 -50.184704 0.000000
                CHANNELS 3 Zrotation Xrotation Yrotation
                JOINT LeftToeBase
                {
                    OFFSET -0.000000 -6.819536 15.737392
                    CHANNELS 3 Zrotation Xrotation Yrotation
                    End Site
                    {
                        OFFSET -0.000000 0.000000 4.196638
                    }
                }
            }
        }
    }
    JOINT RightUpLeg
    {
        OFFSET -10.491594 0.000000 0.000000
        CHANNELS 3 Zrotation Xrotation Yrotation
        JOINT RightLeg
        {
            OFFSET -0.000000 -46.080647 0.000000
            CHANNELS 3 Zrotation Xrotation Yrotation
            JOINT RightFoot
            {
                OFFSET -0.000000 -50.184704 0.000000
                CHANNELS 3 Zrotation Xrotation Yrotation
                JOINT RightToeBase
                {
                    OFFSET -0.000000 -6.819536 15.737392
                    CHANNELS 3 Zrotation Xrotation Yrotation
                    End Site
                    {
                        OFFSET -0.000000 0.000000 4.196638
                    }
                }
            }
        }
    }
}
MOTION
Frames:    13
Frame Time:    0.008333
-42.397003    101.194344    43.206322    -2.812577    -0.715613    87.566010    -3.093056    -8.955262    -0.951830    2.782213    8.980434    -0.927987    6.551836    7.473798    2.770972    -1.029519    -4.189359    2.165622    -3.179050    9.260419    -15.310448    -37.505512    36.072483    -26.649555    7.582263    -10.640165    -36.571186    -11.875547    -8.828197    6.451760    9.420877    9.149900    -8.302775    35.281235    58.079792    27.566154    -1.613607    -9.173361    17.112373    7.041118    -8.950664    -0.279408    -1.035031    2.591338    -0.927749    -4.827840    9.850071    -8.742571    11.000808    -14.456476    14.016837    0.000000    0.000000    0.000000    0.134458    -17.887445    -1.707080    1.541162    -4.839578    -4.434239    17.654936    3.046837    -10.627573    0.000000    0.000000    0.000000    
-41.695805    101.017128    43.236832    -2.924431    -0.487041    87.632797    -3.406612    -8.948811    -0.861353    3.097106    8.642666    -0.828681    6.093748    7.545470    2.624997    -0.325998    -4.010540    2.181144    -3.555039    9.298988    -15.523265    -37.233295    35.719513    -26.664591    7.756317    -10.806196    -36.945526    -12.074299    -8.899500    6.243138    9.303705    9.293717    -8.470372    35.680420    58.049828    27.111372    -1.618552    -9.237923    16.957123    7.120259    -9.026189    -0.429880    -1.243469    2.821475    -0.922968    -4.834137    9.987981    -8.833736    10.885921    -14.914070    14.055594    0.000000    0.000000    0.000000    0.098324    -17.766901    -1.697692    1.434946    -6.441888    -4.785440    19.259872    3.347382    -10.112453    0.000000    0.000000    0.000000    
-40.998394    100.842117    43.278461    -3.022636    -0.300797    87.720238    -3.549913    -9.154684    -0.802126    3.107569    8.834740    -0.757886    6.291104    7.401826    2.499656    -0.553108    -4.008727    1.986351    -3.487482    9.288246    -15.476495    -36.921196    35.242603    -27.200354    7.934413    -10.768847    -37.183441    -11.960128    -8.767976    6.142114    9.301741    9.213332    -8.592689    35.780491    58.039795    27.017540    -1.546216    -9.228970    16.685213    7.491542    -9.022432    -0.267359    -1.384748    3.046430    -0.842156    -4.849666    10.148556    -8.803467    10.758457    -15.417324    13.867599    0.000000    0.000000    0.000000    0.011392    -17.780914    -1.420132    1.482677    -7.496964    -5.535437    20.967264    3.463272    -9.679891    0.000000    0.000000    0.000000    
-40.302967    100.681030    43.327747    -3.120757    -0.139350    87.756248    -3.526350    -9.421817    -0.799751    2.915054    9.090302    -0.740885    5.903956    7.252449    2.411544    0.174530    -3.883224    2.047009    -3.594526    8.954254    -15.086929    -36.468735    35.229965    -27.618824    8.023429    -10.815881    -37.422138    -12.004593    -8.744344    5.900788    9.224068    9.174957    -8.415657    36.001087    58.032852    26.911669    -1.325716    -9.284948    16.446003    7.349786    -9.114959    -0.300821    -1.498107    3.292755    -0.706787    -4.863105    10.269903    -8.733702    10.571190    -15.885730    13.619552    0.000000    0.000000    0.000000    -0.027226    -17.867517    -1.299656    1.572910    -7.961604    -6.060365    22.198996    3.489761    -9.159228    0.000000    0.000000    0.000000    
-39.619656    100.527618    43.376781    -3.241442    -0.000485    87.729836    -3.596923    -9.374595    -0.681604    2.937897    8.814406    -0.613018    5.921051    7.347754    2.343653    0.204141    -4.035870    1.985507    -3.683390    8.989278    -15.155060    -36.370575    34.913555    -27.756596    8.167464    -10.918352    -37.671665    -11.687487    -8.766282    5.933624    9.318148    9.177401    -8.539139    35.995247    58.075912    26.767582    -1.135473    -9.250406    16.178017    7.411321    -9.106951    -0.246995    -1.564123    3.490594    -0.494784    -4.905730    10.449050    -8.779393    10.335632    -16.346476    13.428532    0.000000    0.000000    0.000000    -0.040922    -18.221546    -1.429911    1.678520    -7.697108    -6.427341    22.835157    3.678694    -8.360243    0.000000    0.000000    0.000000    
-38.925110    100.387253    43.441143    -3.319421    0.103193    87.674141    -3.578651    -9.612596    -0.682883    2.913248    9.126722    -0.614357    5.698108    7.161537    2.391913    0.440701    -3.969820    2.086224    -3.713430    8.771548    -14.901365    -36.273479    34.614429    -27.938766    8.293183    -10.918516    -38.021236    -11.566478    -8.694438    5.982435    9.062800    9.199621    -8.279229    35.967941    58.158516    27.021158    -1.063006    -9.257101    15.847758    7.634521    -9.121285    -0.154469    -1.603370    3.731358    -0.364303    -4.934365    10.636735    -8.719265    10.187355    -16.710920    13.195905    0.000000    0.000000    0.000000    0.062635    -18.523247    -1.766001    1.697753    -7.104665    -6.555676    22.884653    4.019075    -7.620671    0.000000    0.000000    0.000000    
-38.241203    100.250717    43.503857    -3.382685    0.169463    87.607605    -3.400850    -9.691276    -0.608519    2.598846    9.228733    -0.529969    6.133497    7.020063    2.468566    -0.119260    -4.037885    2.022328    -3.527295    8.594947    -14.838532    -36.366108    34.374073    -28.019344    8.452346    -10.995285    -38.254330    -11.299781    -8.703264    6.176784    9.196744    9.081721    -8.113829    36.226139    58.074326    26.726229    -0.899697    -9.169381    15.614765    7.383156    -9.067768    -0.316136    -1.629541    3.966203    -0.192691    -4.904044    10.835464    -8.484411    9.634403    -17.242641    12.766451    0.000000    0.000000    0.000000    0.208293    -18.842684    -2.101292    1.737215    -6.150606    -6.457998    22.326683    4.208157    -7.218237    0.000000    0.000000    0.000000    
-37.508373    100.137856    43.592010    -3.374229    0.129381    87.534317    -3.364837    -9.649341    -0.565332    2.810916    9.192918    -0.507189    5.670217    7.018276    2.437206    0.401301    -4.116873    2.121822    -3.740043    8.655814    -14.784828    -36.330624    34.043308    -28.046701    8.705159    -11.165060    -38.504646    -11.449031    -8.791731    6.355888    9.062671    9.195223    -7.985258    36.046070    58.169281    26.910217    -0.836010    -9.119393    15.300536    7.318279    -9.029651    -0.333839    -1.519112    4.303171    -0.062190    -4.843815    11.107963    -8.657722    9.074501    -17.757435    12.616557    0.000000    0.000000    0.000000    0.470802    -19.052414    -2.212688    1.678566    -5.056220    -6.277645    21.705702    4.429437    -7.056177    0.000000    0.000000    0.000000    
-36.762974    100.025047    43.677879    -3.300909    0.078909    87.441055    -3.208819    -9.591331    -0.526333    2.842697    9.260898    -0.487230    5.465076    6.927943    2.449420    0.495581    -4.199334    2.164748    -3.869171    8.662394    -14.681521    -36.378700    33.738285    -27.999517    8.848691    -11.264581    -38.702995    -11.440809    -8.830276    6.412454    8.996214    9.273641    -7.816951    36.030960    57.885197    26.977406    -0.659898    -8.814495    14.967813    7.585081    -8.746503    -0.268887    -1.460802    4.694940    0.185085    -4.729407    11.360870    -8.634288    8.585134    -18.227491    12.269437    0.000000    0.000000    0.000000    0.700514    -19.132589    -2.138213    1.717143    -3.935151    -5.988606    20.925304    4.283010    -7.397646    0.000000    0.000000    0.000000    
-35.981411    99.927559    43.772392    -3.230301    -0.000137    87.467606    -3.209524    -9.602329    -0.475782    3.068661    9.451545    -0.460145    5.707556    6.672928    2.477810    0.030617    -3.971094    2.077039    -3.787893    8.652328    -14.857763    -36.671265    33.428356    -27.949036    9.075251    -11.389051    -38.911125    -11.493659    -8.869831    6.499547    8.978209    9.132244    -7.867446    35.905552    57.996994    26.969025    -0.729268    -8.809294    14.793801    7.908990    -8.735872    -0.293921    -1.341605    5.070649    0.376629    -4.663409    11.656069    -8.491776    8.055966    -18.653622    11.777383    0.000000    0.000000    0.000000    0.886446    -19.126633    -2.090674    1.806977    -2.776018    -5.517262    19.498589    3.975503    -7.771960    0.000000    0.000000    0.000000    
-35.218380    99.847145    43.859833    -3.126402    -0.098369    87.500275    -3.013493    -9.604004    -0.539965    3.135718    9.635524    -0.551172    5.546968    6.787659    2.575732    -0.058956    -4.464862    2.182908    -3.867693    8.802587    -14.745795    -36.768673    32.996193    -27.936251    9.045282    -11.500830    -39.101986    -11.236762    -8.966555    6.549572    8.843747    9.177982    -7.599129    35.745750    58.082535    27.146597    -0.729261    -8.559367    14.542999    7.910335    -8.494734    -0.399675    -1.264874    5.423988    0.635445    -4.539322    12.017099    -8.512888    7.579805    -19.010441    11.505590    0.000000    0.000000    0.000000    1.138444    -19.056263    -1.998140    1.675731    -1.741373    -5.039629    18.082979    3.884927    -7.906650    0.000000    0.000000    0.000000    
-34.402935    99.773941    43.986431    -3.025293    -0.283340    87.719124    -3.213885    -9.270378    -0.444172    3.788349    9.224722    -0.489533    5.665312    6.939931    2.341459    -0.243914    -4.529014    1.903015    -3.909488    9.227208    -15.519898    -37.376541    32.382732    -27.564302    9.259128    -11.626724    -39.042412    -11.341865    -9.013480    6.388845    9.102566    9.145090    -8.086413    35.255085    58.091209    27.059334    -0.490950    -8.504539    14.515141    7.865200    -8.473971    -0.459002    -1.033746    5.810246    0.575665    -4.473966    12.347550    -8.315265    7.058811    -19.378254    11.102993    0.000000    0.000000    0.000000    1.394055    -18.741911    -1.903157    1.536708    -1.415679    -4.611910    17.252373    4.296734    -8.308381    0.000000    0.000000    0.000000    
-33.616360    99.735970    44.103596    -2.943102    -0.482553    88.022011    -3.224202    -9.209984    -0.532167    4.242939    9.285612    -0.617252    5.702012    6.919777    2.317176    -0.573484    -4.676651    1.813022    -4.075969    9.376408    -15.698595    -37.549091    32.183750    -27.515238    9.190103    -11.870595    -38.997536    -11.008064    -9.260201    6.294819    9.160677    9.005630    -8.183431    34.953171    58.332211    27.020889    -0.663720    -8.574675    14.414518    8.075999    -8.524663    -0.471811    -0.816514    6.052214    0.790592    -4.214190    12.897693    -8.461014    6.337214    -19.713888    10.535036    0.000000    0.000000    0.000000    1.511693    -18.371284    -1.712344    1.555450    -1.427857    -4.400104    16.760813    4.837856    -8.552689    0.000000    0.000000    0.000000    
